<svg width="248" height="97" viewBox="0 0 248 97" fill="none" xmlns="http://www.w3.org/2000/svg">
<g clip-path="url(#clip0_1162_37448)">
<path d="M174.612 53.2239V51.7931H175.747V53.2239H174.612ZM174.612 62.6269V54.6719H175.747V62.6269H174.612ZM178.455 55.5444H178.484C179.03 54.8578 179.619 54.457 180.481 54.457C181.674 54.457 182.45 55.0863 182.45 56.4887V62.6266H181.315V56.8033C181.315 55.9734 181.042 55.4154 180.122 55.4154C179.705 55.4154 179.303 55.5728 179.001 55.859C178.541 56.274 178.484 56.7318 178.484 57.304V62.6266H177.349V54.6716H178.455L178.455 55.5444ZM183.031 63.8498H183.16C183.376 63.8498 183.706 63.8214 183.792 63.6352C183.907 63.4205 183.921 63.1774 183.921 62.9486V54.6719H185.057V62.4908C185.057 64.3507 184.597 64.8944 183.03 64.8944L183.031 63.8498ZM183.922 53.2239V51.7931H185.057V53.2239H183.922ZM191.192 59.9802V60.1661C191.192 61.6397 190.387 62.8415 188.777 62.8415C187.269 62.8415 186.191 61.84 186.191 58.635C186.191 56.9611 186.636 54.4572 188.749 54.4572C191.336 54.4572 191.192 56.8895 191.25 58.7494H187.369V59.2503C187.369 60.2518 187.47 61.8826 188.807 61.8826C189.798 61.8826 190.143 61.053 190.143 60.223C190.143 60.1515 190.129 60.0656 190.129 59.9799H191.192L191.192 59.9802ZM190.071 57.8197C190.028 56.8895 190.085 55.4159 188.763 55.4159C187.441 55.4159 187.412 56.8752 187.369 57.8197H190.071ZM193.398 58.6353V58.9928C193.398 60.0374 193.47 61.8829 194.921 61.8829C196.157 61.8829 196.272 60.8242 196.33 59.8512H197.408C197.364 61.3822 196.79 62.8415 195.007 62.8415C192.564 62.8415 192.219 60.8098 192.219 58.7494C192.219 56.8036 192.536 54.4572 194.979 54.4572C196.574 54.4572 197.35 55.6734 197.35 57.1326V57.1757H196.286C196.272 56.3027 196.042 55.4156 194.964 55.4156C193.47 55.4156 193.398 57.4189 193.398 58.635L193.398 58.6353ZM200.258 54.6721H201.594V55.6305H200.272V61.2535C200.272 61.4682 200.33 61.6685 200.804 61.6685H201.566V62.6271H200.215C199.597 62.6271 199.137 62.4697 199.137 61.3253V55.6308H198.031V54.6724H199.137V52.4086H200.258V54.6724L200.258 54.6721ZM202.975 53.2242V51.7934H204.11V53.2242H202.975ZM202.975 62.6271V54.6721H204.11V62.6271H202.975ZM208.161 62.841C206.436 62.841 205.301 61.8111 205.301 58.377C205.301 55.9734 206.192 54.4567 208.161 54.4567C210.13 54.4567 211.021 55.9732 211.021 58.377C211.021 61.8252 209.914 62.841 208.161 62.841ZM208.161 55.4151C206.997 55.4151 206.479 56.3309 206.479 58.7348C206.479 60.609 206.839 61.8824 208.161 61.8824C209.512 61.8824 209.842 60.609 209.842 58.7348C209.842 56.3309 209.354 55.4151 208.161 55.4151ZM213.274 55.5446H213.303C213.849 54.8581 214.438 54.4572 215.301 54.4572C216.493 54.4572 217.269 55.0866 217.269 56.4889V62.6269H216.134V56.8036C216.134 55.9737 215.861 55.4156 214.941 55.4156C214.525 55.4156 214.122 55.5731 213.821 55.8593C213.361 56.2743 213.303 56.732 213.303 57.3042V62.6269H212.168V54.6719H213.275L213.274 55.5446ZM221.906 62.6271H223.043V55.6323H224.29V54.6741H223.043V53.7535C223.043 52.9521 223.257 52.7518 223.844 52.7518C223.975 52.7518 224.119 52.7692 224.29 52.7823V51.8241C224.088 51.8067 223.887 51.7936 223.717 51.7936C222.969 51.7936 222.479 51.968 222.177 52.3948C221.892 52.7954 221.892 53.4532 221.892 53.9279V54.6741H220.742V55.6323H221.905V62.6271H221.906ZM230.608 58.3768C230.608 55.9732 229.717 54.4565 227.748 54.4565C225.779 54.4565 224.888 55.9729 224.888 58.3768C224.888 61.8108 226.024 62.8408 227.748 62.8408C229.501 62.8408 230.608 61.8249 230.608 58.3768ZM229.43 58.7345C229.43 60.6088 229.099 61.8821 227.748 61.8821C226.426 61.8821 226.067 60.6088 226.067 58.7345C226.067 56.3307 226.584 55.4149 227.748 55.4149C228.941 55.4149 229.43 56.3307 229.43 58.7345ZM232.976 54.6736H231.882V62.6269H233.019V57.8053C233.019 56.5204 233.693 55.6625 234.874 55.6625C235.014 55.6625 235.176 55.6756 235.347 55.7061V54.5867C235.233 54.5736 235.133 54.5736 235.032 54.5736C234.039 54.5736 233.435 55.0309 233.006 55.9762H232.976V54.6739L232.976 54.6736ZM174.612 78.517V67.6832H175.805V78.517H174.612ZM183.423 67.6832H184.745L181.641 78.517H180.16L177.07 67.6832H178.393L180.879 77.5553H180.908L183.423 67.6832ZM188.237 69.114V67.6832H189.372V69.114H188.237ZM188.237 78.517V70.562H189.372V78.517H188.237ZM192.08 71.4345H192.108C192.654 70.7479 193.243 70.3471 194.106 70.3471C195.298 70.3471 196.074 70.9764 196.074 72.3788V78.517H194.939V72.6937C194.939 71.8638 194.666 71.3057 193.746 71.3057C193.33 71.3057 192.927 71.4632 192.626 71.7494C192.166 72.1644 192.108 72.6222 192.108 73.1943V78.517H190.973V70.562H192.08V71.4347L192.08 71.4345ZM198.133 78.517H199.27V71.5221H200.517V70.564H199.27V69.6434C199.27 68.8419 199.484 68.6416 200.07 68.6416C200.202 68.6416 200.346 68.659 200.517 68.6721V67.714C200.315 67.6966 200.114 67.6835 199.943 67.6835C199.196 67.6835 198.705 67.8578 198.404 68.2846C198.119 68.6852 198.119 69.3431 198.119 69.8177V70.564H196.968V71.5221H198.132L198.133 78.517ZM205.556 78.5175H206.689V70.5642H205.556V75.669C205.556 76.1262 205.486 76.6707 205.223 77.0716C204.908 77.5288 204.405 77.7727 203.858 77.7727C203.053 77.7727 202.839 77.4157 202.839 76.7405V70.5645H201.706V76.7014C201.706 78.1038 202.437 78.7311 203.631 78.7311C204.405 78.7311 205.14 78.287 205.525 77.4724H205.556V78.5177L205.556 78.5175ZM212.696 72.6942V72.6244C212.696 71.0346 211.777 70.3466 210.224 70.3466C208.846 70.3466 207.883 71.2221 207.883 72.5939C207.883 73.9834 208.601 74.3971 209.835 74.8544C210.653 75.1986 211.803 75.2986 211.803 76.4268C211.803 77.4024 211.199 77.7727 210.281 77.7727C209.275 77.7727 208.929 77.2414 208.929 76.3573V76.2006H207.853V76.3704C207.853 76.8582 207.883 77.3416 208.299 77.9035C208.702 78.487 209.533 78.7309 210.224 78.7309H210.325C211.934 78.7309 212.984 77.7858 212.984 76.2832C212.984 74.798 211.834 74.5105 210.683 73.9965C209.909 73.6655 209.06 73.5392 209.06 72.507C209.06 71.6794 209.52 71.305 210.325 71.305C211.23 71.305 211.589 71.7056 211.589 72.5375V72.6942H212.696ZM214.199 69.114V67.6832H215.334V69.114H214.199ZM214.199 78.517V70.562H215.334V78.517H214.199ZM219.385 78.7309C217.661 78.7309 216.526 77.7009 216.526 74.2669C216.526 71.8633 217.417 70.3466 219.385 70.3466C221.354 70.3466 222.245 71.863 222.245 74.2669C222.245 77.715 221.139 78.7309 219.385 78.7309ZM219.385 71.305C218.221 71.305 217.704 72.2208 217.704 74.6246C217.704 76.4989 218.063 77.7722 219.385 77.7722C220.736 77.7722 221.067 76.4989 221.067 74.6246C221.067 72.2208 220.578 71.305 219.385 71.305ZM224.499 71.4345H224.528C225.074 70.7479 225.663 70.3471 226.525 70.3471C227.718 70.3471 228.494 70.9764 228.494 72.3788V78.517H227.359V72.6937C227.359 71.8638 227.085 71.3057 226.166 71.3057C225.749 71.3057 225.347 71.4632 225.045 71.7494C224.585 72.1644 224.528 72.6222 224.528 73.1943V78.517H223.393V70.562H224.499V71.4347L224.499 71.4345ZM176.688 87.5569C177.74 87.543 178.833 87.4191 178.833 85.7932C178.833 84.7872 178.529 84.0984 177.38 84.0984C176.079 84.0984 175.899 85.0628 175.899 86.1238H174.806V85.9585C174.806 84.305 175.594 83.0646 177.408 83.0646C178.958 83.0646 179.996 84.0707 179.996 85.6277C179.996 86.7441 179.65 87.5571 178.543 87.9429V87.9701C179.747 88.2321 180.272 89.1827 180.272 90.354C180.272 92.2829 179.415 93.6059 177.352 93.6059C175.332 93.6059 174.612 92.3106 174.612 90.519V90.3676H175.747C175.733 90.4918 175.733 90.6019 175.733 90.712C175.733 91.6903 176.121 92.5722 177.45 92.5722C178.585 92.5722 179.124 91.7868 179.124 90.7259C179.124 88.9484 178.46 88.5901 176.785 88.5901H176.688L176.688 87.5569ZM182.377 90.6987V90.8917C182.377 91.8833 182.806 92.5724 183.913 92.5724C185.131 92.5724 185.574 91.36 185.574 90.0786C185.574 88.8935 185.311 87.6536 183.844 87.6536C183.152 87.6536 182.667 87.9567 182.39 88.5904H181.366L181.975 83.2715H186.39V84.3052H182.903L182.446 87.3367L182.474 87.3644C182.93 86.8683 183.401 86.6201 184.121 86.6201C186.03 86.634 186.764 88.2187 186.764 89.8997C186.764 91.7322 186.086 93.6064 183.941 93.6064C182.169 93.6064 181.187 92.6004 181.187 90.9055V90.6992H182.377V90.6987ZM187.678 88.3147C187.678 86.3858 187.803 83.0646 190.501 83.0646C193.269 83.0646 193.338 86.055 193.338 88.0391V88.3147C193.338 90.6571 193.214 93.6059 190.501 93.6059C187.733 93.6059 187.678 90.6987 187.678 88.3147ZM188.868 89.5135C188.868 91.0978 189.02 92.5722 190.501 92.5722C192.093 92.5722 192.148 90.478 192.148 88.5901V87.4465C192.148 86.0132 192.024 84.0981 190.501 84.0981H190.404C188.992 84.0981 188.868 86.1926 188.868 87.4604V89.5135ZM197.072 93.3991H195.978V85.7378H197.03V86.7161H197.058C197.418 86.0686 198.082 85.531 198.885 85.531C199.701 85.531 200.366 86.0132 200.712 86.7436C201.251 85.9583 201.805 85.531 202.774 85.531C203.3 85.531 203.784 85.7101 204.186 86.0686C204.629 86.4821 204.656 87.2122 204.656 87.7083V93.3991H203.563V87.7907C203.563 86.9366 203.327 86.4541 202.386 86.4541C202.013 86.468 201.639 86.6194 201.362 86.8814C200.919 87.2807 200.864 87.7219 200.864 88.2729V93.3988H199.771V87.7904C199.771 86.9913 199.508 86.4538 198.622 86.4538C198.22 86.4538 197.833 86.6053 197.542 86.8812C197.099 87.2805 197.071 87.7216 197.071 88.2727V93.3985L197.072 93.3991ZM209.991 85.7378H211.085V92.7173C211.085 93.6545 211.016 94.3711 210.504 95.1838C210.019 95.942 209.231 96.2448 208.386 96.2448C207.154 96.2448 206.241 95.6799 206.089 94.3711H207.154C207.251 95.0601 207.694 95.3217 208.358 95.3217C209.895 95.3217 209.964 94.0125 209.964 93.1169V92.5034H209.936C209.48 93.2887 208.981 93.6059 208.275 93.6059C206.822 93.6059 205.812 92.5999 205.812 89.5135C205.812 87.9013 206.213 85.531 208.248 85.531C208.954 85.531 209.59 85.8756 209.964 86.6058H209.992V85.7378H209.991ZM206.947 89.5684C206.947 91.4424 207.265 92.6825 208.345 92.6825C209.978 92.6825 209.991 90.6987 209.991 89.4581V89.4032C209.991 87.8872 209.673 86.4544 208.455 86.4544C207.002 86.4544 206.947 88.5352 206.947 89.5684ZM212.315 93.7712L215.678 83.0646H216.522L213.16 93.7712H212.315ZM219.464 90.8639C218.966 91.3046 218.744 91.7181 218.717 92.3661H223.104V93.3993H217.526C217.54 92.6553 217.637 91.8972 217.941 91.167C218.094 90.8085 218.454 90.4228 218.758 90.1333L220.737 88.2318C221.54 87.4604 221.817 87.0469 221.817 85.9167C221.817 84.8696 221.457 84.0979 220.28 84.0979C218.952 84.0979 218.758 85.2966 218.758 86.3437V86.5781H217.609V85.9442C217.609 85.1863 217.803 84.4698 218.273 83.8772C218.592 83.5466 219.173 83.0641 220.336 83.0641C222.107 83.0641 223.007 84.2357 223.007 85.9442C223.007 87.4601 222.398 88.2039 221.332 89.1686L219.464 90.8634V90.8639ZM224.068 88.3147C224.068 86.3858 224.193 83.0646 226.892 83.0646C229.66 83.0646 229.729 86.055 229.729 88.0391V88.3147C229.729 90.6571 229.604 93.6059 226.892 93.6059C224.124 93.6059 224.068 90.6987 224.068 88.3147ZM225.259 89.5135C225.259 91.0978 225.411 92.5722 226.892 92.5722C228.483 92.5722 228.539 90.478 228.539 88.5901V87.4465C228.539 86.0132 228.414 84.0981 226.892 84.0981H226.795C225.383 84.0981 225.259 86.1926 225.259 87.4604V89.5135ZM233.474 93.3991H232.381V85.7378H233.432V86.7161H233.46C233.82 86.0686 234.484 85.531 235.287 85.531C236.104 85.531 236.768 86.0132 237.114 86.7436C237.654 85.9583 238.207 85.531 239.176 85.531C239.702 85.531 240.186 85.7101 240.588 86.0686C241.031 86.4821 241.058 87.2122 241.058 87.7083V93.3991H239.965V87.7907C239.965 86.9366 239.73 86.4541 238.789 86.4541C238.415 86.468 238.041 86.6194 237.764 86.8814C237.322 87.2807 237.266 87.7219 237.266 88.2729V93.3988H236.173V87.7904C236.173 86.9913 235.91 86.4538 235.024 86.4538C234.623 86.4538 234.235 86.6053 233.944 86.8812C233.502 87.2805 233.474 87.7216 233.474 88.2727V93.3985V93.3991ZM242.616 93.3991V83.0644H243.765V92.3658H248V93.3991H242.616ZM20.4884 76.0053C19.505 78.0287 17.7786 80.8568 17.7786 86.405C17.7786 90.4084 18.5433 93.5197 20.5977 97.0009H19.3301C17.3633 93.8027 15.9426 90.4737 15.9426 86.666C15.9426 82.3799 17.1009 79.6165 19.3301 76.0051H20.4884V76.0053ZM27.7414 77.097H29.4662V93.3996H27.8069V91.8128H27.7631C27.0209 93.2474 26.2784 93.7256 24.8157 93.7256C21.4535 93.7256 21.2569 89.6173 21.2569 87.9V86.8131C21.2569 83.5091 22.4359 80.9876 24.903 80.9876C26.1473 80.9876 26.8898 81.5091 27.6976 82.5527H27.7411V77.0967L27.7414 77.097ZM27.7414 87.1611C27.7414 85.509 27.6978 82.4441 25.3836 82.4441C23.9427 82.4441 23.0038 83.5743 23.0038 87.2913C23.0038 89.8997 23.0911 92.2691 25.4491 92.2691C27.2393 92.2691 27.7416 90.0303 27.7416 88.6607V87.1608L27.7414 87.1611ZM35.1887 93.7256C32.5687 93.7256 30.8444 92.1605 30.8444 86.9436C30.8444 83.2919 32.1978 80.9878 35.1887 80.9878C38.1796 80.9878 39.5335 83.2919 39.5335 86.9436C39.5335 92.1821 37.8524 93.7256 35.1887 93.7256ZM35.1887 82.4443C33.4203 82.4443 32.6343 83.8356 32.6343 87.4873C32.6343 90.3349 33.1801 92.2693 35.1887 92.2693C37.241 92.2693 37.7431 90.3349 37.7431 87.4873C37.7431 83.8356 37.0009 82.4443 35.1887 82.4443ZM42.7152 82.6399H42.7588C43.5883 81.5965 44.4836 80.9878 45.7935 80.9878C47.6056 80.9878 48.7847 81.9442 48.7847 84.0745V93.3996H47.0598V84.5527C47.0598 83.2919 46.645 82.4441 45.2476 82.4441C44.6145 82.4441 44.0031 82.6832 43.5448 83.1178C42.8461 83.7482 42.7588 84.4438 42.7588 85.3133V93.3993H41.0339V81.3136H42.715V82.6396L42.7152 82.6399ZM58.672 93.3996C58.5409 93.4212 58.4101 93.4431 58.279 93.4865C58.1044 93.4865 57.9515 93.5081 57.7987 93.5081C56.6852 93.5081 56.2484 93.2257 56.0956 91.7692H56.0521C55.6373 92.8342 54.5238 93.7256 53.3666 93.7256C50.9433 93.7256 50.2446 92.3779 50.2446 90.1824C50.2446 89.7259 50.3101 87.987 51.9912 87.248C52.9736 86.8134 55.4189 85.9003 55.6373 85.7265C55.943 85.4874 55.9648 85.1397 55.9648 84.6832V84.3352C55.9648 82.9659 55.4409 82.4441 54.0435 82.4441C52.537 82.4441 52.2751 83.0961 52.2751 84.4005V84.5743H50.7251V84.3352C50.7251 82.0095 51.9697 80.9878 54.3275 80.9878C57.4059 80.9878 57.6241 83.1833 57.6241 83.9875V91.3998C57.6241 91.6823 57.6458 91.9866 57.9298 92.1171C58.0606 92.1388 58.1699 92.1607 58.3008 92.1607C58.4316 92.1607 58.5627 92.1391 58.672 92.1391V93.3998V93.3996ZM55.8337 86.8786C54.9821 87.3785 54.0215 87.7481 53.1047 88.1827C52.2969 88.5523 52.035 89.4435 52.035 90.2694C52.035 91.4865 52.3407 92.2691 53.7378 92.2691C54.3927 92.2691 55.8337 91.7692 55.8337 89.8128V86.8784V86.8786ZM61.667 82.6399H61.7105C62.5401 81.5965 63.4354 80.9878 64.7452 80.9878C66.5574 80.9878 67.7359 81.9442 67.7359 84.0745V93.3996H66.0115V84.5527C66.0115 83.2919 65.5968 82.4441 64.1994 82.4441C63.5662 82.4441 62.9548 82.6832 62.4963 83.1178C61.7976 83.7482 61.7103 84.4438 61.7103 85.3133V93.3993H59.9854V81.3136H61.6665V82.6396L61.667 82.6399ZM76.9405 89.3782V89.6609C76.9405 91.8997 75.718 93.7256 73.2726 93.7256C70.9802 93.7256 69.3428 92.2041 69.3428 87.3349C69.3428 84.7918 70.0195 80.9878 73.2291 80.9878C77.1589 80.9878 76.9408 84.6832 77.0281 87.5088H71.1333V88.2696C71.1333 89.7912 71.2861 92.2691 73.3164 92.2691C74.8229 92.2691 75.347 91.0083 75.347 89.7476C75.347 89.639 75.3252 89.5085 75.3252 89.3782H76.9408H76.9405ZM75.2377 86.0958C75.1721 84.6829 75.2594 82.4441 73.2509 82.4441C71.2423 82.4441 71.1985 84.6612 71.133 86.0958H75.2374H75.2377ZM80.4072 93.3993H78.6823V81.3136H80.3416V82.857H80.3854C80.953 81.8354 82.001 80.9878 83.2673 80.9878C84.5554 80.9878 85.6033 81.7487 86.1491 82.9006C87.0007 81.6615 87.874 80.9878 89.4022 80.9878C90.2318 80.9878 90.996 81.2705 91.6292 81.8356C92.3279 82.4877 92.3714 83.6398 92.3714 84.4224V93.3996H90.6466V84.5527C90.6466 83.205 90.2753 82.4441 88.7909 82.4441C88.2015 82.4658 87.6121 82.7049 87.1753 83.1178C86.4766 83.7482 86.3893 84.4438 86.3893 85.3133V93.3993H84.6644V84.5524C84.6644 83.2917 84.2497 82.4438 82.8523 82.4438C82.2191 82.4438 81.6077 82.6829 81.1494 83.1176C80.4507 83.7479 80.4072 84.4436 80.4072 85.313V93.3993ZM102.33 93.3993C102.199 93.421 102.068 93.4429 101.937 93.4862C101.763 93.4862 101.61 93.5079 101.457 93.5079C100.344 93.5079 99.9073 93.2255 99.7545 91.7689H99.7107C99.2959 92.8339 98.1825 93.7253 97.0252 93.7253C94.6019 93.7253 93.9032 92.3777 93.9032 90.1822C93.9032 89.7256 93.9687 87.9867 95.6498 87.2477C96.6322 86.8131 99.0775 85.9001 99.2959 85.7262C99.6016 85.4871 99.6234 85.1394 99.6234 84.6829V84.335C99.6234 82.9656 99.0993 82.4438 97.7021 82.4438C96.1957 82.4438 95.9338 83.0959 95.9338 84.4002V84.5741H94.3838V84.335C94.3838 82.0092 95.6283 80.9876 97.9861 80.9876C101.065 80.9876 101.283 83.1831 101.283 83.9873V91.3996C101.283 91.682 101.304 91.9864 101.588 92.1169C101.719 92.1385 101.828 92.1605 101.959 92.1605C102.09 92.1605 102.221 92.1388 102.33 92.1388V93.3996V93.3993ZM99.423 86.8784C98.5714 87.3782 97.6108 87.7479 96.6939 88.1825C95.8862 88.5521 95.6243 89.4432 95.6243 90.2691C95.6243 91.4863 95.93 92.2688 97.3271 92.2688C97.982 92.2688 99.423 91.7689 99.423 89.8126V86.8781V86.8784ZM105.303 93.3993H103.731V77.0967H105.456V82.5527H105.5C106.176 81.4658 106.962 80.9876 108.032 80.9876C111.111 80.9876 111.853 84.0959 111.853 86.574C111.853 90.0083 111.395 93.7253 108.12 93.7253C107.072 93.7253 106.067 93.3776 105.347 91.9647H105.303V93.3993H105.303ZM105.347 87.7479C105.347 89.5304 105.368 92.2691 107.77 92.2691C109.56 92.2691 110.062 90.3996 110.062 87.1391C110.062 85.5524 109.953 82.4441 107.748 82.4441C105.478 82.4441 105.347 85.2047 105.347 87.0522V87.7479ZM113.902 87.5579V85.7386H119.252V87.5579H113.902ZM129.304 93.3993C129.173 93.421 129.042 93.4429 128.911 93.4862C128.736 93.4862 128.583 93.5079 128.43 93.5079C127.317 93.5079 126.88 93.2255 126.727 91.7689H126.684C126.269 92.8339 125.155 93.7253 123.998 93.7253C121.575 93.7253 120.876 92.3777 120.876 90.1822C120.876 89.7256 120.942 87.9867 122.623 87.2477C123.605 86.8131 126.051 85.9001 126.269 85.7262C126.575 85.4871 126.596 85.1394 126.596 84.6829V84.335C126.596 82.9656 126.073 82.4438 124.675 82.4438C123.169 82.4438 122.907 83.0959 122.907 84.4002V84.5741H121.357V84.335C121.357 82.0092 122.601 80.9876 124.959 80.9876C128.038 80.9876 128.256 83.1831 128.256 83.9873V91.3996C128.256 91.682 128.278 91.9864 128.561 92.1169C128.692 92.1385 128.802 92.1605 128.932 92.1605C129.063 92.1605 129.194 92.1388 129.304 92.1388V93.3996V93.3993ZM126.465 86.8784C125.614 87.3782 124.653 87.7479 123.736 88.1825C122.929 88.5521 122.667 89.4432 122.667 90.2691C122.667 91.4863 122.972 92.2688 124.369 92.2688C125.024 92.2688 126.465 91.7689 126.465 89.8126V86.8781V86.8784ZM141.35 93.3993H139.778V77.0967H141.503V82.5527H141.547C142.223 81.4658 143.01 80.9876 144.079 80.9876C147.158 80.9876 147.9 84.0959 147.9 86.574C147.9 90.0083 147.442 93.7253 144.167 93.7253C143.119 93.7253 142.114 93.3776 141.394 91.9647H141.35V93.3993ZM141.394 87.7479C141.394 89.5304 141.416 92.2691 143.817 92.2691C145.607 92.2691 146.11 90.3996 146.11 87.1391C146.11 85.5524 146.001 82.4441 143.795 82.4441C141.525 82.4441 141.394 85.2047 141.394 87.0522V87.7479ZM152.083 81.3139H154.114V82.7701H152.105V91.3129C152.105 91.6389 152.192 91.943 152.913 91.943H154.07V93.3996H152.017C151.079 93.3996 150.38 93.1605 150.38 91.4215V82.7701H148.699V81.3139H150.38V78.0312H152.083V81.3139H152.083ZM130.43 93.3993V92.0516L136.063 82.7265H130.67V81.3136H137.853V82.7265L132.22 91.9864H137.897V93.3993H130.431H130.43ZM156.041 76.0051C158.27 79.6165 159.428 82.3796 159.428 86.666C159.428 90.4734 158.007 93.8024 156.041 97.0009H154.773C156.827 93.5197 157.592 90.4084 157.592 86.405C157.592 80.8568 155.866 78.0287 154.882 76.0053H156.041V76.0051ZM167.526 51.3981H166.514V94.2292H167.526V51.3983V51.3981ZM21.2572 46.1754C21.2572 45.4606 21.8384 44.8477 22.5569 44.8477C23.3092 44.8477 23.8905 45.4606 23.8905 46.1754V62.3137L33.4659 52.6104C33.7738 52.2698 34.0813 52.1 34.4918 52.1C35.2099 52.1 35.6887 52.6787 35.6887 53.3257C35.6887 53.7341 35.5177 54.0065 35.1758 54.3469L29.3966 59.9988L35.7229 67.9319C35.9626 68.2383 36.065 68.4769 36.065 68.817C36.065 69.532 35.5177 70.0427 34.7997 70.0427C34.3209 70.0427 34.0132 69.8724 33.6711 69.43L27.5498 61.735L23.8908 65.3439V68.7147C23.8908 69.4637 23.3437 70.0425 22.5911 70.0425C21.8384 70.0425 21.2574 69.4637 21.2574 68.7147V46.1757L21.2572 46.1754ZM39.7213 46.7476C39.7213 45.8965 40.405 45.3516 41.2601 45.3516C42.1494 45.3516 42.8334 45.8965 42.8334 46.7476V47.1903C42.8334 48.0076 42.1496 48.5863 41.2601 48.5863C40.4053 48.5863 39.7213 48.0076 39.7213 47.1903V46.7476ZM39.9609 53.4277C39.9609 52.7127 40.5422 52.1 41.2601 52.1C42.0125 52.1 42.5938 52.6787 42.5938 53.4277V68.7147C42.5938 69.4637 42.0466 70.0425 41.2945 70.0425C40.5425 70.0425 39.9609 69.4637 39.9609 68.7147V53.4277ZM46.5625 67.8293C46.3231 67.6593 46.0837 67.3189 46.0837 66.876C46.0837 66.2632 46.5967 65.7528 47.2463 65.7528C47.4859 65.7528 47.7251 65.8206 47.8962 65.9571C49.7086 67.1828 51.5896 67.8293 53.5045 67.8293C55.6246 67.8293 57.1635 66.7399 57.1635 65.0378V64.9695C57.1635 63.1993 55.0775 62.518 52.7519 61.8715C49.9819 61.0882 46.9042 60.1349 46.9042 56.9006V56.8323C46.9042 53.8021 49.4345 51.7934 52.9227 51.7934C54.8037 51.7934 56.8553 52.3721 58.5652 53.2914C58.9074 53.4958 59.2151 53.8702 59.2151 54.3811C59.2151 54.9939 58.7024 55.5043 58.0525 55.5043C57.8129 55.5043 57.6079 55.4365 57.4712 55.3683C55.9665 54.5172 54.3591 54.0065 52.8544 54.0065C50.7684 54.0065 49.4345 55.0959 49.4345 56.56V56.6277C49.4345 58.2961 51.6232 58.9431 53.9828 59.6579C56.7186 60.4752 59.6597 61.5306 59.6597 64.6969V64.7652C59.6597 68.1017 56.8897 70.0425 53.3673 70.0425C51.042 70.0425 48.4772 69.1914 46.562 67.8291L46.5625 67.8293ZM78.4088 68.5106C78.4088 69.2259 77.8616 69.8384 77.1095 69.8384C76.3914 69.8384 75.8098 69.2597 75.8098 68.5106V66.6041C74.6129 68.5106 72.8004 70.0427 69.7569 70.0427C65.4821 70.0427 62.9857 67.1828 62.9857 62.9952V53.2237C62.9857 52.4746 63.5328 51.8959 64.2854 51.8959C65.0036 51.8959 65.619 52.4746 65.619 53.2237V62.3482C65.619 65.6165 67.3973 67.6595 70.5092 67.6595C73.5186 67.6595 75.8098 65.4467 75.8098 62.1441V53.2239C75.8098 52.4749 76.3569 51.8962 77.1095 51.8962C77.8275 51.8962 78.4088 52.4749 78.4088 53.2239V68.5106ZM82.5764 53.428C82.5764 52.713 83.1577 52.1002 83.8762 52.1002C84.6285 52.1002 85.2098 52.679 85.2098 53.428V55.3345C86.3723 53.428 88.2192 51.8954 91.2628 51.8954C95.5372 51.8954 98.0337 54.7555 98.0337 58.9434V68.7147C98.0337 69.4637 97.4524 70.0425 96.7342 70.0425C95.9818 70.0425 95.4006 69.4637 95.4006 68.7147V59.5901C95.4006 56.3214 93.6223 54.2788 90.5104 54.2788C87.4668 54.2788 85.2098 56.4917 85.2098 59.7945V68.7147C85.2098 69.4637 84.6627 70.0425 83.9101 70.0425C83.1575 70.0425 82.5764 69.4637 82.5764 68.7147V53.4277V53.428ZM102.455 46.1759C102.455 45.4612 103.037 44.8482 103.755 44.8482C104.507 44.8482 105.089 45.4612 105.089 46.1759V68.7149C105.089 69.464 104.541 70.0427 103.789 70.0427C103.037 70.0427 102.455 69.464 102.455 68.7149V46.1759ZM108.474 64.5613V64.4936C108.474 60.7821 111.552 58.8076 116.032 58.8076C118.289 58.8076 119.896 59.114 121.469 59.5566V58.9436C121.469 55.7774 119.52 54.1428 116.203 54.1428C114.424 54.1428 112.919 54.5514 111.62 55.1304C111.449 55.1987 111.278 55.2325 111.141 55.2325C110.526 55.2325 109.979 54.7215 109.979 54.1088C109.979 53.5638 110.355 53.1554 110.697 53.0193C112.441 52.2703 114.219 51.8276 116.476 51.8276C118.972 51.8276 120.888 52.4746 122.187 53.7681C123.384 54.9598 124 56.6623 124 58.9094V68.5444C124 69.2934 123.452 69.8384 122.734 69.8384C121.982 69.8384 121.469 69.2937 121.469 68.6127V67.0125C120.238 68.6127 118.186 70.0427 115.074 70.0427C111.791 70.0427 108.474 68.17 108.474 64.5611L108.474 64.5613ZM121.503 63.1996V61.4971C120.204 61.1225 118.46 60.7481 116.305 60.7481C112.988 60.7481 111.142 62.1779 111.142 64.3913V64.459C111.142 66.6724 113.193 67.9659 115.587 67.9659C118.836 67.9659 121.503 65.9911 121.503 63.1996ZM126.834 67.3139H126.227C126.114 67.3139 126.025 67.2219 126.025 67.1095C126.025 67.0017 126.114 66.9097 126.227 66.9097H127.884C127.99 66.9097 128.08 67.0017 128.08 67.1095C128.08 67.2222 127.99 67.3139 127.884 67.3139H127.275V69.1949C127.275 69.3121 127.175 69.4131 127.053 69.4131C126.933 69.4131 126.834 69.3121 126.834 69.1949V67.3139ZM128.633 67.1141C128.633 66.9946 128.73 66.8936 128.85 66.8936H128.899C128.998 66.8936 129.06 66.9465 129.104 67.0153L129.86 68.1889L130.615 67.0085C130.661 66.9349 130.73 66.8936 130.82 66.8936H130.862C130.986 66.8936 131.085 66.9946 131.085 67.1141V69.1949C131.085 69.3121 130.986 69.4131 130.862 69.4131C130.744 69.4131 130.647 69.3098 130.647 69.1949V67.7044L130.031 68.6162C129.992 68.685 129.934 68.7288 129.846 68.7288C129.773 68.7288 129.715 68.6852 129.667 68.6162L129.062 67.7112V69.1949C129.062 69.3189 128.965 69.4131 128.845 69.4131C128.725 69.4131 128.633 69.3189 128.633 69.1949L128.633 67.1141Z" fill="#5B6770"/>
<path d="M0 60.7388C0 55.5068 4.23802 51.5714 9.49714 47.6289V70.0422C4.74844 70.0422 0 66.3454 0 60.7388Z" fill="url(#paint0_linear_1162_37448)"/>
<path d="M9.49707 47.6283V0C21.0979 0 30.3673 9.85293 30.3673 20.2796C30.3673 34.0347 18.3826 40.9657 9.49707 47.6283Z" fill="url(#paint1_linear_1162_37448)"/>
</g>
<defs>
<linearGradient id="paint0_linear_1162_37448" x1="4.74869" y1="70.6544" x2="4.74869" y2="48.1013" gradientUnits="userSpaceOnUse">
<stop stop-color="#5B6770"/>
<stop offset="1" stop-color="#ADB3B8"/>
</linearGradient>
<linearGradient id="paint1_linear_1162_37448" x1="19.9323" y1="-0.121943" x2="19.9323" y2="46.9825" gradientUnits="userSpaceOnUse">
<stop stop-color="#FFC000"/>
<stop offset="1" stop-color="#FF8500"/>
</linearGradient>
<clipPath id="clip0_1162_37448">
<rect width="248" height="97" fill="white"/>
</clipPath>
</defs>
</svg>
