<svg width="90" height="48" viewBox="0 0 90 48" fill="none" xmlns="http://www.w3.org/2000/svg">
<g id="Lilly Logo">
<path id="Lilly Logo Red" fill-rule="evenodd" clip-rule="evenodd" d="M40.0513 20.1532C41.2704 20.1532 42.2542 21.1218 42.2542 22.311C42.2542 23.5034 41.2704 24.4721 40.0513 24.4721C38.8292 24.4721 37.8425 23.5034 37.8425 22.311C37.8425 21.1218 38.8292 20.1532 40.0513 20.1532ZM90 27.504C86.5287 30.8845 75.7054 40.1791 72.8404 48L69.2946 47.1076C70.4529 43.867 73.9446 38.8297 77.8354 34.9413C77.0079 35.2474 76.1442 35.3608 75.4521 35.3608C74.4 35.3608 73.5813 35.0509 73.0908 34.4671C72.7367 34.0484 72.5579 33.4985 72.5579 32.8482C72.5579 32.7076 72.5679 32.5641 72.5888 32.4051C69.1721 34.4406 66.4212 35.3608 63.73 35.3608C61.6362 35.3608 59.8704 34.4671 59.0583 32.9012C55.6658 34.547 52.4129 35.3608 49.6929 35.3608C47.1613 35.3608 45.1204 34.3807 44.1854 32.5922C40.755 34.4798 37.8383 35.3608 35.5163 35.3608C34.18 35.3608 33.1204 34.9979 32.4392 34.313C31.9383 33.8087 31.6737 33.1271 31.6379 32.3411C29.4379 33.7578 26.2283 35.3608 22.9312 35.3608C19.5654 35.3608 17.3033 34.229 15.5517 33.1087C12.7546 34.6229 9.67833 35.3608 6.425 35.3608C3.96625 35.3608 0 34.3579 0 30.9093C0 28.1233 2.97 26.2386 6.94125 26.2386C10.3204 26.2386 13.5742 27.632 15.6171 29.0768C17.5558 27.568 19.5904 25.4542 21.9892 22.47C21.4617 22.4969 20.9475 22.5108 20.4404 22.5108C15.8446 22.5108 12.0067 21.1866 9.91292 18.8657C8.78125 17.6129 8.24708 16.1424 8.24708 14.561C8.24708 8.30562 16.3179 3.45303 23.3804 2.74041C23.8483 3.77551 24.2658 4.57252 24.6958 5.52241C17.7183 6.31412 11.9075 10.355 11.9075 14.3034C11.9075 16.8978 14.8904 19.5037 21.2179 19.5037C22.3013 19.5037 23.3913 19.4038 24.4629 19.2571C30.0488 11.7142 38.61 0 45.9746 0C48.1533 0 49.2925 1.29519 49.2925 3.03109C49.2925 6.59827 46.1583 10.437 44.1171 12.4407C40.9058 15.5961 35.1025 20.2905 26.9946 21.8454C23.8396 26.137 21.2467 28.9847 18.6546 31.0402C20.2275 31.8714 21.6987 32.3786 23.4571 32.3786C27.8204 32.3786 32.0529 28.4681 35.3604 25.1566L35.4771 25.0469L38.0558 27.018L37.9371 27.1554C36.4742 28.7955 35.1267 30.5298 35.1267 31.5001C35.1267 32.2384 35.7629 32.3843 36.3104 32.3843C37.9829 32.3843 40.5571 31.3268 43.5896 29.5016V29.4767C43.9242 22.1467 54.1471 10.9384 60.3525 10.9384C62.1042 10.9384 63.1121 11.7905 63.1121 13.2891C63.1121 16.9618 56.6325 24.8423 47.2088 30.8686V30.8739C47.6975 31.8996 48.8192 32.3941 50.7233 32.3941C52.2117 32.3941 55.1175 31.7455 58.5742 29.9774C58.975 26.1794 61.1746 22.1035 63.9617 19.1971C66.7604 16.2871 69.8971 14.3943 72.6092 14.3943C74.2804 14.3943 75.2683 15.2973 75.2683 16.7103C75.2683 19.9138 71.4675 25.3934 62.3067 31.1299C62.7121 31.8996 63.5 32.3843 64.7225 32.3843C67.45 32.3843 72.2567 29.535 76.0017 26.0311L78.6883 28.0751C77.5412 29.4376 76.38 30.9379 76.4171 31.7989C76.4275 32.0769 76.62 32.2636 77.0713 32.2636C79.83 32.2636 84.1754 28.7005 87.4329 25.5549L90 27.504ZM29.8075 17.9386C33.8508 16.6695 37.6867 14.018 40.5462 11.2482C43.1925 8.68558 45.3088 5.64145 45.3088 4.1363C45.3088 3.7914 45.0571 3.58471 44.7388 3.58471C43.515 3.58471 41.1912 5.17547 38.0667 8.23632C35.6325 10.6261 32.7971 13.8831 29.8075 17.9386ZM12.5279 31.0174C11.0383 30.0067 8.73417 29.1229 6.67875 29.1229C4.68375 29.1229 3.40667 29.8885 3.40667 30.8563C3.40667 31.9685 4.95542 32.4556 6.68958 32.4556C8.79208 32.4556 10.7004 31.8996 12.5279 31.0174ZM47.1613 27.3532C52.8021 23.1834 58.7254 17.1135 59.3583 14.6214C59.3796 14.5398 59.3992 14.4599 59.3958 14.3841C59.3871 14.221 59.2971 14.0743 59.0842 14.0743C57.3 14.0743 49.0321 21.5327 47.1613 27.3532ZM62.1196 28.0209C62.6404 27.6581 63.2038 27.2333 63.73 26.8268C67.7808 23.6547 70.8763 20.1805 71.4871 18.2579C71.5092 18.1955 71.5638 18.0185 71.5638 17.8767C71.5638 17.6773 71.4675 17.5383 71.2808 17.5383C69.4238 17.5383 63.4542 23.351 62.0104 28.0556V28.0751L62.1196 28.0209Z" fill="white"/>
</g>
</svg>
