<svg width="60" height="60" viewBox="0 0 60 60" fill="none" xmlns="http://www.w3.org/2000/svg">
<circle cx="30" cy="30" r="30" fill="#5B6770"/>
<path fill-rule="evenodd" clip-rule="evenodd" d="M20.4756 32.4648C20.4756 27.0801 24.8408 22.7148 30.2256 22.7148C35.6078 22.7211 39.9694 27.0826 39.9756 32.4648C39.9756 37.8496 35.6104 42.2148 30.2256 42.2148C24.8408 42.2148 20.4756 37.8496 20.4756 32.4648ZM30.2256 33.2148H35.4756C35.8898 33.2148 36.2256 32.8791 36.2256 32.4648C36.2256 32.0506 35.8898 31.7148 35.4756 31.7148H30.9756V27.2148C30.9756 26.8006 30.6398 26.4648 30.2256 26.4648C29.8114 26.4648 29.4756 26.8006 29.4756 27.2148V32.4648C29.4755 32.6638 29.5545 32.8546 29.6951 32.9953C29.8358 33.136 30.0266 33.215 30.2256 33.2148Z" fill="#FFC000"/>
<path d="M29.4756 20.7148V21.7148H30.4756V20.7148H31.4756V19.7148H28.4756V20.7148H29.4756Z" stroke="#FFC000"/>
<path d="M23.4141 21.3828C24.9631 22.9318 23.3604 23.8405 21.8114 25.3895C20.2624 26.9385 19.3537 28.5412 17.8047 26.9922C16.2557 25.4432 16.2557 22.9318 17.8047 21.3828C19.3537 19.8338 21.8651 19.8338 23.4141 21.3828Z" fill="#FFC000"/>
<path d="M42.7339 26.9196C41.0919 28.5616 40.1286 26.8626 38.4865 25.2206C36.8445 23.5785 35.1455 22.6152 36.7876 20.9732C38.4296 19.3311 41.0919 19.3311 42.7339 20.9732C44.376 22.6152 44.376 25.2775 42.7339 26.9196Z" fill="#FFC000"/>
</svg>
