<svg width="16" height="15" viewBox="0 0 16 15" fill="none" xmlns="http://www.w3.org/2000/svg">
<path fill-rule="evenodd" clip-rule="evenodd" d="M16.0059 2.60128V4.78064H16.0056V12.4563C16.0056 13.8586 14.7836 15 13.2823 15H2.72934C1.22776 15 0.00585938 13.8586 0.00585938 12.4563V4.78035V2.60099V2.36227C0.00585938 1.12819 1.15938 0.120088 2.60156 0.0630567V0.0636357V0.616466V0.616987V1.17462V1.17653V1.48757C2.60156 2.09772 3.0016 2.62221 3.56956 2.84425C3.6845 3.04684 3.91256 3.1848 4.17524 3.1848C4.4378 3.1848 4.66586 3.04689 4.78085 2.84434C5.34898 2.62235 5.74916 2.09781 5.74916 1.48757V1.16437V0.610965V0.0575562H10.2117V0.610965V1.16437V1.48757C10.2117 2.09771 10.6118 2.62219 11.1798 2.84424C11.2947 3.047 11.5229 3.18509 11.7857 3.18509C12.0487 3.18509 12.277 3.0469 12.3918 2.84401C12.9595 2.62183 13.3593 2.0975 13.3593 1.48757V1.17179V1.17069V0.614845V0.614324V0.0614355V0.061146C14.8257 0.0962913 16.0059 1.11371 16.0059 2.36256V2.60128ZM12.3918 2.84401C12.4423 2.75487 12.4709 2.65324 12.4709 2.54535V2.22186V1.66845V1.11504V0.697294C12.4703 0.344162 12.164 0.0578457 11.7857 0.0578457C11.4073 0.0578457 11.1006 0.344162 11.1006 0.697584V1.11533V1.66874V2.22215V2.54535C11.1006 2.65333 11.1292 2.75504 11.1798 2.84424C11.3663 2.91718 11.571 2.95748 11.7855 2.95748C12.0003 2.95748 12.2051 2.91709 12.3918 2.84401ZM4.78085 2.84434C4.83154 2.75505 4.86025 2.6532 4.86025 2.54506V2.22186V1.66845V1.11504V0.697294C4.86031 0.343872 4.55361 0.0575562 4.1753 0.0575562C3.79681 0.0578457 3.49023 0.344162 3.49023 0.697294V1.11504V1.66845V2.22186V2.54506C3.49023 2.65316 3.51892 2.75498 3.56956 2.84425C3.7561 2.91718 3.96075 2.95748 4.1753 2.95748C4.38977 2.95748 4.59436 2.91721 4.78085 2.84434ZM4.83479 7.38124C5.0853 7.38124 5.28833 7.57066 5.28833 7.80446V9.28262C5.28833 9.51673 5.0853 9.70622 4.83479 9.70622H3.25212C3.0019 9.70622 2.79883 9.51673 2.79883 9.28262V7.80446C2.79883 7.57066 3.0019 7.38124 3.25212 7.38124H4.83479ZM9.27075 7.80446C9.27075 7.57066 9.06766 7.38124 8.81762 7.38124H7.23459C6.98434 7.38124 6.78125 7.57066 6.78125 7.80446V9.28262C6.78125 9.51673 6.98434 9.70622 7.23459 9.70622H8.81762C9.06766 9.70622 9.27075 9.51673 9.27075 9.28262V7.80446ZM13.2823 13.8932C14.1306 13.8932 14.8207 13.2489 14.8207 12.4566V4.78064H1.19137V12.4566C1.19137 13.2489 1.8814 13.8932 2.72965 13.8932H13.2823ZM13.2543 7.80447C13.2543 7.57066 13.0513 7.38125 12.801 7.38125H11.2184C10.9679 7.38125 10.7648 7.57066 10.7648 7.80447V9.28262C10.7648 9.51674 10.9679 9.70623 11.2184 9.70623H12.801C13.0513 9.70623 13.2543 9.51674 13.2543 9.28262V7.80447ZM4.83479 11.1012C5.0853 11.1012 5.28833 11.2905 5.28833 11.5247V13.0027C5.28833 13.2367 5.0853 13.4262 4.83479 13.4262H3.25212C3.0019 13.4262 2.79883 13.2367 2.79883 13.0027V11.5247C2.79883 11.2905 3.0019 11.1012 3.25212 11.1012H4.83479ZM9.27075 11.5247C9.27075 11.2905 9.06766 11.1012 8.81762 11.1012H7.23459C6.98434 11.1012 6.78125 11.2905 6.78125 11.5247V13.0027C6.78125 13.2367 6.98434 13.4262 7.23459 13.4262H8.81762C9.06766 13.4262 9.27075 13.2367 9.27075 13.0027V11.5247ZM12.8012 11.1012C13.0513 11.1012 13.2543 11.2905 13.2543 11.5247V13.0027C13.2543 13.2367 13.0513 13.4262 12.8012 13.4262H11.2184C10.9679 13.4262 10.7648 13.2367 10.7648 13.0027V11.5247C10.7648 11.2905 10.9679 11.1012 11.2184 11.1012H12.8012Z" fill="#212121"/>
</svg>
