<svg width="60" height="60" viewBox="0 0 60 60" fill="none" xmlns="http://www.w3.org/2000/svg">
<circle cx="30" cy="30" r="30" fill="#5B6770"/>
<path fill-rule="evenodd" clip-rule="evenodd" d="M37.4127 40.5594C35.6687 37.4746 32.8756 35.1608 29.5706 34.0631C32.825 32.0745 34.3844 28.098 33.3803 24.3482C32.3761 20.5985 29.056 18 25.2691 18C21.4822 18 18.1621 20.5985 17.158 24.3482C16.1538 28.098 17.7132 32.0745 20.9676 34.0631C17.6627 35.1608 14.8697 37.4745 13.1256 40.5592C12.9583 40.8561 12.9581 41.2222 13.125 41.5194C13.2919 41.8166 13.6006 41.9998 13.9347 41.9998L36.6037 42C36.9378 42 37.2465 41.8169 37.4134 41.5197C37.5803 41.2225 37.5801 40.8564 37.4127 40.5594L37.4127 40.5594Z" fill="#FFC000"/>
<path fill-rule="evenodd" clip-rule="evenodd" d="M44.935 37.2797C44.0329 35.7373 42.5882 34.5804 40.8787 34.0315C42.562 33.0373 43.3686 31.049 42.8492 29.1741C42.3299 27.2993 40.6126 26 38.6538 26C36.6951 26 34.9778 27.2993 34.4584 29.1741C33.939 31.049 34.7456 33.0373 36.4289 34.0315C34.7195 34.5804 33.2748 35.7372 32.3727 37.2796C32.2862 37.4281 32.286 37.6111 32.3724 37.7597C32.4587 37.9083 32.6184 37.9999 32.7912 37.9999L44.5165 38C44.6894 38 44.849 37.9085 44.9354 37.7598C45.0217 37.6112 45.0216 37.4282 44.935 37.2797L44.935 37.2797Z" fill="#FFC000"/>
</svg>
