<svg width="61" height="60" viewBox="0 0 61 60" fill="none" xmlns="http://www.w3.org/2000/svg">
<circle cx="30.997" cy="30" r="30" fill="#5B6770"/>
<path fill-rule="evenodd" clip-rule="evenodd" d="M36.622 16.2734C37.334 16.2734 37.9223 16.8235 38.0155 17.5371L38.0283 17.7355V18.7102H40.372C41.6048 18.7102 42.6153 19.6997 42.7087 20.9565L42.7158 21.1469V40.641C42.7158 41.9227 41.764 42.9733 40.5552 43.0704L40.372 43.0778H21.622C20.3893 43.0778 19.3788 42.0882 19.2853 40.8314L19.2783 40.641V21.1469C19.2783 19.8653 20.2301 18.8147 21.4389 18.7175L21.622 18.7102H23.9658V17.7355C23.9658 16.928 24.5954 16.2734 25.372 16.2734C26.084 16.2734 26.6723 16.8235 26.7655 17.5371L26.7783 17.7355V18.7102H35.2158V17.7355C35.2158 16.928 35.8454 16.2734 36.622 16.2734ZM23.9658 21.6343H22.0908V27.1576H39.9033V21.6343H38.0283V22.7715C38.0283 23.5789 37.3987 24.2335 36.622 24.2335C35.8593 24.2335 35.2383 23.6021 35.2164 22.8146L35.2145 21.6343H26.7783V22.7715C26.7783 23.5789 26.1487 24.2335 25.372 24.2335C24.6093 24.2335 23.9883 23.6021 23.9664 22.8146L23.9658 21.6343Z" fill="#FFC000"/>
</svg>
