<svg xmlns="http://www.w3.org/2000/svg" width="20" height="20" viewBox="0 0 20 20" fill="none">
  <path fill-rule="evenodd" clip-rule="evenodd" d="M13.0065 1.28208C13.1197 1.39993 13.276 1.46655 13.4394 1.46655H16.1676C16.499 1.46655 16.7676 1.73518 16.7676 2.06655V2.9999C16.7676 3.33127 16.499 3.5999 16.1676 3.5999H3.03164C2.70027 3.5999 2.43164 3.33127 2.43164 2.9999V2.06655C2.43164 1.73518 2.70027 1.46655 3.03164 1.46655H5.75989C5.92326 1.46655 6.07957 1.39993 6.19271 1.28208L6.86254 0.584373C6.97568 0.466521 7.13199 0.399902 7.29536 0.399902H11.9039C12.0673 0.399902 12.2236 0.466521 12.3367 0.584373L13.0065 1.28208ZM5.50358 19.5999C4.37203 19.5999 3.45557 18.6453 3.45557 17.4666V4.66655H15.7436V17.4666C15.7436 18.6453 14.8271 19.5999 13.6956 19.5999H5.50358Z" fill="#C25400"/>
</svg>