<svg width="15" height="20" viewBox="0 0 15 20" fill="none" xmlns="http://www.w3.org/2000/svg">
<path fill-rule="evenodd" clip-rule="evenodd" d="M14.4565 9.25843C14.7682 8.94248 14.5444 8.40726 14.1006 8.40726H10.4974V0.899902C10.4974 0.62376 10.2735 0.399902 9.99739 0.399902H5.20266C4.92652 0.399902 4.70266 0.62376 4.70266 0.899902V8.40726H1.09947C0.65564 8.40726 0.431829 8.94248 0.743541 9.25843L7.2441 15.8472C7.43989 16.0457 7.76016 16.0457 7.95595 15.8472L14.4565 9.25843ZM0.900024 17.3411C0.623882 17.3411 0.400024 17.5649 0.400024 17.8411V19.0999C0.400024 19.376 0.623882 19.5999 0.900024 19.5999H14.3C14.5762 19.5999 14.8 19.376 14.8 19.0999V17.8411C14.8 17.5649 14.5762 17.3411 14.3 17.3411H0.900024Z" fill="#5B6770"/>
</svg>
