<svg width="48" height="48" viewBox="0 0 48 48" fill="none" xmlns="http://www.w3.org/2000/svg">
<rect y="24" width="33.9411" height="33.9411" transform="rotate(-45 0 24)" fill="#502361"/>
<path d="M23.2556 30.4382C25.5176 30.4382 26.6454 28.8744 27.1004 25.7148C27.3951 23.685 27.9014 23.0148 28.7152 23.0148C29.5034 23.0148 30.0032 23.6276 30.1249 25.1723C29.3047 25.5552 28.728 26.4361 28.728 27.3744C28.728 28.6382 29.7469 29.6595 31.0156 29.6595C32.278 29.6595 33.2969 28.6382 33.2969 27.3744C33.2969 26.3723 32.6433 25.4403 31.7333 25.102C31.4706 22.4914 30.4581 21.3871 28.7536 21.3871C26.9594 21.3871 25.9149 22.5871 25.5048 25.2616C25.1395 27.5786 24.6525 28.8105 23.2684 28.8105C22.0765 28.8105 21.4229 27.668 21.3204 25.5425C23.4542 24.9169 25.7034 21.502 25.7034 18.8659C25.7034 17.2893 24.8832 16.434 23.2748 16.434H23.1787C22.9608 16.1914 22.6404 16.0382 22.288 16.0382C21.6344 16.0382 21.0897 16.5808 21.0897 17.2382C21.0897 17.8957 21.6344 18.4382 22.288 18.4382C22.634 18.4382 22.9416 18.2914 23.1659 18.0616H23.3068C23.8003 18.0616 24.0758 18.3552 24.0758 18.8531C24.0758 20.8701 22.0381 24.0169 20.5002 24.0169C18.9622 24.0169 16.9309 20.8701 16.9309 18.8531C16.9309 18.3552 17.2 18.0616 17.6935 18.0616H17.8344C18.0523 18.2914 18.3599 18.4382 18.7059 18.4382C19.3659 18.4382 19.9042 17.8957 19.9042 17.2382C19.9042 16.5808 19.3659 16.0382 18.7059 16.0382C18.3535 16.0382 18.0395 16.1914 17.8152 16.434H17.7255C16.1235 16.434 15.2969 17.2893 15.2969 18.8659C15.2969 21.502 17.5525 24.9233 19.6863 25.5425C19.8209 28.7403 21.0512 30.4382 23.2556 30.4382ZM31.0156 28.185C30.5735 28.185 30.2018 27.8212 30.2018 27.3744C30.2018 26.9276 30.5735 26.5701 31.0156 26.5701C31.4642 26.5701 31.823 26.9276 31.823 27.3744C31.823 27.8212 31.4642 28.185 31.0156 28.185Z" fill="white"/>
</svg>
