<svg width="24" height="25" viewBox="0 0 24 25" fill="none" xmlns="http://www.w3.org/2000/svg">
<path d="M12 2.44238C10.0716 2.44238 8.18657 3.01567 6.58319 4.08976C4.97982 5.16384 3.73013 6.69048 2.99218 8.47661C2.25422 10.2627 2.06114 12.2282 2.43735 14.1243C2.81355 16.0205 3.74215 17.7622 5.10571 19.1292C6.46928 20.4963 8.20656 21.4273 10.0979 21.8044C11.9892 22.1816 13.9496 21.988 15.7312 21.2482C17.5127 20.5083 19.0355 19.2555 20.1068 17.648C21.1782 16.0405 21.75 14.1506 21.75 12.2173C21.7473 9.62568 20.7192 7.14098 18.8913 5.30842C17.0634 3.47585 14.585 2.44512 12 2.44238ZM17.25 12.9692H12C11.8011 12.9692 11.6103 12.89 11.4697 12.749C11.329 12.608 11.25 12.4167 11.25 12.2173V6.95389C11.25 6.75447 11.329 6.56322 11.4697 6.42221C11.6103 6.28119 11.8011 6.20197 12 6.20197C12.1989 6.20197 12.3897 6.28119 12.5303 6.42221C12.671 6.56322 12.75 6.75447 12.75 6.95389V11.4654H17.25C17.4489 11.4654 17.6397 11.5446 17.7803 11.6856C17.921 11.8266 18 12.0179 18 12.2173C18 12.4167 17.921 12.608 17.7803 12.749C17.6397 12.89 17.4489 12.9692 17.25 12.9692Z" fill="#5B6770"/>
</svg>
