<svg width="24" height="25" viewBox="0 0 24 25" fill="none" xmlns="http://www.w3.org/2000/svg">
<path d="M19.5 3.06902H17.25V2.3171C17.25 2.11768 17.171 1.92643 17.0303 1.78542C16.8897 1.64441 16.6989 1.56519 16.5 1.56519C16.3011 1.56519 16.1103 1.64441 15.9697 1.78542C15.829 1.92643 15.75 2.11768 15.75 2.3171V3.06902H8.25V2.3171C8.25 2.11768 8.17098 1.92643 8.03033 1.78542C7.88968 1.64441 7.69891 1.56519 7.5 1.56519C7.30109 1.56519 7.11032 1.64441 6.96967 1.78542C6.82902 1.92643 6.75 2.11768 6.75 2.3171V3.06902H4.5C4.10218 3.06902 3.72064 3.22746 3.43934 3.50949C3.15804 3.79151 3 4.17402 3 4.57286V19.6112C3 20.0101 3.15804 20.3926 3.43934 20.6746C3.72064 20.9566 4.10218 21.1151 4.5 21.1151H19.5C19.8978 21.1151 20.2794 20.9566 20.5607 20.6746C20.842 20.3926 21 20.0101 21 19.6112V4.57286C21 4.17402 20.842 3.79151 20.5607 3.50949C20.2794 3.22746 19.8978 3.06902 19.5 3.06902ZM19.5 7.58053H4.5V4.57286H6.75V5.32478C6.75 5.5242 6.82902 5.71545 6.96967 5.85646C7.11032 5.99747 7.30109 6.07669 7.5 6.07669C7.69891 6.07669 7.88968 5.99747 8.03033 5.85646C8.17098 5.71545 8.25 5.5242 8.25 5.32478V4.57286H15.75V5.32478C15.75 5.5242 15.829 5.71545 15.9697 5.85646C16.1103 5.99747 16.3011 6.07669 16.5 6.07669C16.6989 6.07669 16.8897 5.99747 17.0303 5.85646C17.171 5.71545 17.25 5.5242 17.25 5.32478V4.57286H19.5V7.58053Z" fill="#5B6770"/>
</svg>
