<svg width="24" height="25" viewBox="0 0 24 25" fill="none" xmlns="http://www.w3.org/2000/svg">
<path d="M12 1.81323C9.81273 1.81572 7.71575 2.68794 6.16911 4.23853C4.62247 5.78912 3.75248 7.89146 3.75 10.0843C3.75 17.1618 11.25 22.507 11.5697 22.7307C11.6958 22.8192 11.846 22.8667 12 22.8667C12.154 22.8667 12.3042 22.8192 12.4303 22.7307C12.75 22.507 20.25 17.1618 20.25 10.0843C20.2475 7.89146 19.3775 5.78912 17.8309 4.23853C16.2843 2.68794 14.1873 1.81572 12 1.81323ZM12 7.07666C12.5933 7.07666 13.1734 7.25306 13.6667 7.58354C14.1601 7.91403 14.5446 8.38376 14.7716 8.93335C14.9987 9.48293 15.0581 10.0877 14.9424 10.6711C14.8266 11.2545 14.5409 11.7904 14.1213 12.2111C13.7018 12.6317 13.1672 12.9182 12.5853 13.0342C12.0033 13.1503 11.4001 13.0907 10.8519 12.8631C10.3038 12.6354 9.83524 12.2499 9.50559 11.7553C9.17595 11.2607 9 10.6792 9 10.0843C9 9.28665 9.31607 8.52163 9.87868 7.95759C10.4413 7.39354 11.2044 7.07666 12 7.07666Z" fill="#5B6770"/>
</svg>
