<svg width="24" height="25" viewBox="0 0 24 25" fill="none" xmlns="http://www.w3.org/2000/svg">
<path d="M22.5 9.51978C22.5 16.0823 12.7697 21.3941 12.3553 21.6135C12.2461 21.6723 12.124 21.703 12 21.703C11.876 21.703 11.7539 21.6723 11.6447 21.6135C11.2303 21.3941 1.5 16.0823 1.5 9.51978C1.50174 7.97874 2.11468 6.50131 3.20436 5.41164C4.29404 4.32196 5.77146 3.70901 7.3125 3.70728C9.24844 3.70728 10.9434 4.53978 12 5.94696C13.0566 4.53978 14.7516 3.70728 16.6875 3.70728C18.2285 3.70901 19.706 4.32196 20.7956 5.41164C21.8853 6.50131 22.4983 7.97874 22.5 9.51978Z" fill="#5B6770"/>
</svg>
