<svg width="24" height="25" viewBox="0 0 24 25" fill="none" xmlns="http://www.w3.org/2000/svg">
<path d="M22.5 9.0028C22.5 15.707 12.7697 21.1336 12.3553 21.3577C12.2461 21.4177 12.124 21.4491 12 21.4491C11.876 21.4491 11.7539 21.4177 11.6447 21.3577C11.2303 21.1336 1.5 15.707 1.5 9.0028C1.50174 7.42848 2.11468 5.91916 3.20436 4.80595C4.29404 3.69274 5.77146 3.06656 7.3125 3.06479C9.24844 3.06479 10.9434 3.91526 12 5.35284C13.0566 3.91526 14.7516 3.06479 16.6875 3.06479C18.2285 3.06656 19.706 3.69274 20.7956 4.80595C21.8853 5.91916 22.4983 7.42848 22.5 9.0028Z" fill="#C25400"/>
</svg>
