<svg width="35" height="35" viewBox="0 0 35 35" fill="none" xmlns="http://www.w3.org/2000/svg">
<path fill-rule="evenodd" clip-rule="evenodd" d="M0 17.5C0 7.83502 7.83502 0 17.5 0C27.1604 0.0111653 34.9888 7.83965 35 17.5C35 27.165 27.165 35 17.5 35C7.83502 35 0 27.165 0 17.5ZM17.5 18.8459H26.923C27.6665 18.8459 28.2692 18.2432 28.2692 17.4997C28.2692 16.7562 27.6665 16.1535 26.923 16.1535H18.8461V8.07662C18.8461 7.33316 18.2434 6.73047 17.5 6.73047C16.7565 6.73047 16.1538 7.33316 16.1538 8.07662V17.4997C16.1536 17.8568 16.2954 18.1993 16.5479 18.4518C16.8004 18.7043 17.1429 18.8461 17.5 18.8459Z" fill="#502361"/>
</svg>
