<svg width="48" height="48" viewBox="0 0 48 48" fill="none" xmlns="http://www.w3.org/2000/svg">
<rect y="24" width="33.9411" height="33.9411" transform="rotate(-45 0 24)" fill="#FFC000"/>
<path d="M18.4028 33.3021C18.6178 33.3021 18.7916 33.1136 18.7916 32.8809V30.937C18.7916 30.2248 19.3268 29.6454 19.9841 29.6454C20.6415 29.6454 21.1762 30.2248 21.1762 30.937V32.9781C21.1762 34.1548 22.0599 35.1124 23.1461 35.1124C24.2326 35.1124 25.1164 34.155 25.1164 32.9781V28.9805H25.3325C26.0026 28.9805 26.5481 28.3896 26.5481 27.6635V26.6891C28.0728 26.6759 29.3097 25.3292 29.3097 23.674V15.76C29.3097 14.8147 28.5999 14.0457 27.7277 14.0457L21.7268 14.0455C20.8545 14.0455 20.1447 14.8146 20.1447 15.7598V23.6738C20.1447 25.329 21.3819 26.6757 22.9063 26.6889V27.6632C22.9063 28.3894 23.4517 28.9803 24.122 28.9803H24.3384V32.9779C24.3384 33.6901 23.8033 34.2695 23.1459 34.2695C22.4885 34.2695 21.9538 33.6901 21.9538 32.9779V30.9368C21.9538 29.7601 21.0702 28.8024 19.984 28.8024C18.8975 28.8024 18.0137 29.7599 18.0137 30.9368V32.8807C18.0139 33.1134 18.1877 33.3021 18.4028 33.3021ZM21.7267 14.8878H27.727C28.1706 14.8878 28.5315 15.2789 28.5315 15.7596V18.6814L20.9223 18.6811V15.7594C20.9223 15.279 21.2832 14.8878 21.7267 14.8878ZM20.9225 23.6736V19.5237H28.5317V23.6736C28.5317 24.8721 27.6317 25.8472 26.5255 25.8472H22.9287C21.8225 25.8472 20.9225 24.8721 20.9225 23.6736ZM23.6841 27.6631V26.6901H25.7701V27.6631C25.7701 27.9248 25.5738 28.1375 25.3323 28.1375H24.1219C23.8804 28.1375 23.6841 27.9248 23.6841 27.6631Z" fill="#5B6770" stroke="#5B6770" stroke-width="0.5"/>
<path fill-rule="evenodd" clip-rule="evenodd" d="M29.0396 18.6333H20.2539V24.419C20.2539 25.4841 21.1281 26.3476 22.2063 26.3476H23.1825V27.3118C23.1825 27.8443 23.6191 28.2761 24.1587 28.2761H25.1348C25.6744 28.2761 26.111 27.8443 26.111 27.3118V26.3476H27.0872C28.1654 26.3476 29.0396 25.4841 29.0396 24.419V18.6333Z" fill="#5B6770"/>
</svg>
