<svg width="31" height="44" viewBox="0 0 31 44" fill="none" xmlns="http://www.w3.org/2000/svg">
<path fill-rule="evenodd" clip-rule="evenodd" d="M1 39.1668H30V35.9446H1V39.1668ZM1 31.1113H30V27.8891H1V31.1113ZM1 19.8335V23.0557H30V19.8335H1Z" fill="#212121"/>
<path d="M1.8418 3.46875H3.33008L5.52148 9.73242L7.71289 3.46875H9.20117L6.11914 12H4.92383L1.8418 3.46875ZM1.03906 3.46875H2.52148L2.79102 9.57422V12H1.03906V3.46875ZM8.52148 3.46875H10.0098V12H8.25195V9.57422L8.52148 3.46875ZM14.3633 12.1172C13.8711 12.1172 13.4297 12.0391 13.0391 11.8828C12.6484 11.7227 12.3164 11.502 12.043 11.2207C11.7734 10.9395 11.5664 10.6133 11.4219 10.2422C11.2773 9.86719 11.2051 9.46875 11.2051 9.04688V8.8125C11.2051 8.33203 11.2734 7.89258 11.4102 7.49414C11.5469 7.0957 11.7422 6.75 11.9961 6.45703C12.2539 6.16406 12.5664 5.93945 12.9336 5.7832C13.3008 5.62305 13.7148 5.54297 14.1758 5.54297C14.625 5.54297 15.0234 5.61719 15.3711 5.76562C15.7188 5.91406 16.0098 6.125 16.2441 6.39844C16.4824 6.67188 16.6621 7 16.7832 7.38281C16.9043 7.76172 16.9648 8.18359 16.9648 8.64844V9.35156H11.9258V8.22656H15.3066V8.09766C15.3066 7.86328 15.2637 7.6543 15.1777 7.4707C15.0957 7.2832 14.9707 7.13477 14.8027 7.02539C14.6348 6.91602 14.4199 6.86133 14.1582 6.86133C13.9355 6.86133 13.7441 6.91016 13.584 7.00781C13.4238 7.10547 13.293 7.24219 13.1914 7.41797C13.0938 7.59375 13.0195 7.80078 12.9688 8.03906C12.9219 8.27344 12.8984 8.53125 12.8984 8.8125V9.04688C12.8984 9.30078 12.9336 9.53516 13.0039 9.75C13.0781 9.96484 13.1816 10.1504 13.3145 10.3066C13.4512 10.4629 13.6152 10.584 13.8066 10.6699C14.002 10.7559 14.2227 10.7988 14.4688 10.7988C14.7734 10.7988 15.0566 10.7402 15.3184 10.623C15.584 10.502 15.8125 10.3203 16.0039 10.0781L16.8242 10.9688C16.6914 11.1602 16.5098 11.3438 16.2793 11.5195C16.0527 11.6953 15.7793 11.8398 15.459 11.9531C15.1387 12.0625 14.7734 12.1172 14.3633 12.1172ZM19.5781 7.01367V12H17.8906V5.66016H19.4727L19.5781 7.01367ZM19.332 8.60742H18.875C18.875 8.13867 18.9355 7.7168 19.0566 7.3418C19.1777 6.96289 19.3477 6.64062 19.5664 6.375C19.7852 6.10547 20.0449 5.90039 20.3457 5.75977C20.6504 5.61523 20.9902 5.54297 21.3652 5.54297C21.6621 5.54297 21.9336 5.58594 22.1797 5.67188C22.4258 5.75781 22.6367 5.89453 22.8125 6.08203C22.9922 6.26953 23.1289 6.51758 23.2227 6.82617C23.3203 7.13477 23.3691 7.51172 23.3691 7.95703V12H21.6699V7.95117C21.6699 7.66992 21.6309 7.45117 21.5527 7.29492C21.4746 7.13867 21.3594 7.0293 21.207 6.9668C21.0586 6.90039 20.875 6.86719 20.6562 6.86719C20.4297 6.86719 20.2324 6.91211 20.0645 7.00195C19.9004 7.0918 19.7637 7.2168 19.6543 7.37695C19.5488 7.5332 19.4688 7.7168 19.4141 7.92773C19.3594 8.13867 19.332 8.36523 19.332 8.60742ZM28.4023 10.4824V5.66016H30.0898V12H28.502L28.4023 10.4824ZM28.5898 9.18164L29.0879 9.16992C29.0879 9.5918 29.0391 9.98438 28.9414 10.3477C28.8438 10.707 28.6973 11.0195 28.502 11.2852C28.3066 11.5469 28.0605 11.752 27.7637 11.9004C27.4668 12.0449 27.1172 12.1172 26.7148 12.1172C26.4062 12.1172 26.1211 12.0742 25.8594 11.9883C25.6016 11.8984 25.3789 11.7598 25.1914 11.5723C25.0078 11.3809 24.8633 11.1367 24.7578 10.8398C24.6562 10.5391 24.6055 10.1777 24.6055 9.75586V5.66016H26.293V9.76758C26.293 9.95508 26.3145 10.1133 26.3574 10.2422C26.4043 10.3711 26.4688 10.4766 26.5508 10.5586C26.6328 10.6406 26.7285 10.6992 26.8379 10.7344C26.9512 10.7695 27.0762 10.7871 27.2129 10.7871C27.5605 10.7871 27.834 10.7168 28.0332 10.5762C28.2363 10.4355 28.3789 10.2441 28.4609 10.002C28.5469 9.75586 28.5898 9.48242 28.5898 9.18164Z" fill="#212121"/>
</svg>
