<svg width="48" height="48" viewBox="0 0 48 48" fill="none" xmlns="http://www.w3.org/2000/svg">
<rect y="24" width="33.9411" height="33.9411" transform="rotate(-45 0 24)" fill="#C25400"/>
<path d="M23.0447 32.0617C25.6031 32.0617 26.8787 30.2929 27.3932 26.7193C27.7266 24.4236 28.2992 23.6656 29.2196 23.6656C30.1111 23.6656 30.6764 24.3586 30.8141 26.1057C29.8864 26.5389 29.2341 27.5351 29.2341 28.5964C29.2341 30.0258 30.3865 31.1809 31.8216 31.1809C33.2493 31.1809 34.4017 30.0258 34.4017 28.5964C34.4017 27.4629 33.6625 26.4089 32.6333 26.0263C32.3361 23.0736 31.191 21.8246 29.2631 21.8246C27.2338 21.8246 26.0524 23.1819 25.5886 26.2068C25.1755 28.8274 24.6246 30.2207 23.0592 30.2207C21.7111 30.2207 20.9718 28.9285 20.8559 26.5244C23.2693 25.8169 25.8133 21.9546 25.8133 18.973C25.8133 17.1898 24.8856 16.2224 23.0664 16.2224H22.9577C22.7113 15.948 22.3489 15.7748 21.9503 15.7748C21.211 15.7748 20.595 16.3884 20.595 17.132C20.595 17.8756 21.211 18.4893 21.9503 18.4893C22.3416 18.4893 22.6895 18.3232 22.9432 18.0633H23.1026C23.6607 18.0633 23.9724 18.3954 23.9724 18.9585C23.9724 21.2398 21.6676 24.799 19.9282 24.799C18.1887 24.799 15.8912 21.2398 15.8912 18.9585C15.8912 18.3954 16.1956 18.0633 16.7537 18.0633H16.9132C17.1596 18.3232 17.5075 18.4893 17.8988 18.4893C18.6453 18.4893 19.2541 17.8756 19.2541 17.132C19.2541 16.3884 18.6453 15.7748 17.8988 15.7748C17.5002 15.7748 17.1451 15.948 16.8914 16.2224H16.7899C14.978 16.2224 14.0431 17.1898 14.0431 18.973C14.0431 21.9546 16.5943 25.8241 19.0077 26.5244C19.1599 30.1413 20.5515 32.0617 23.0447 32.0617ZM31.8216 29.5132C31.3215 29.5132 30.9011 29.1017 30.9011 28.5964C30.9011 28.091 31.3215 27.6867 31.8216 27.6867C32.3289 27.6867 32.7348 28.091 32.7348 28.5964C32.7348 29.1017 32.3289 29.5132 31.8216 29.5132Z" fill="white"/>
</svg>
