<svg width="35" height="38" viewBox="0 0 35 38" fill="none" xmlns="http://www.w3.org/2000/svg">
<path fill-rule="evenodd" clip-rule="evenodd" d="M27.2063 37.6515C29.6195 37.6515 31.7467 36.767 33.4627 34.7286C34.4459 33.5364 35 32.2095 35 30.8635C35 29.7097 34.5889 28.6136 33.57 27.8252L28.0465 23.5947C27.1348 22.9024 26.3841 22.5948 25.7048 22.5948C24.8289 22.5948 24.0603 23.1332 23.2201 24.037L21.8795 25.46C21.6828 25.6907 21.4147 25.7676 21.1823 25.7676C20.8963 25.7676 20.5924 25.6523 20.3958 25.5369C19.2518 24.8446 17.2497 22.9986 15.4265 21.0179C13.6032 19.0565 11.8871 16.922 11.2436 15.6721C11.1185 15.4606 11.0112 15.1529 11.0112 14.8452C11.0112 14.5953 11.1006 14.326 11.2972 14.0953L12.6379 12.6531C13.478 11.73 13.9785 10.9032 13.9785 9.96092C13.9785 9.2302 13.6747 8.42256 13.0312 7.46108L9.11644 1.53837C8.40143 0.46151 7.34678 0 6.23851 0C4.98723 0 3.77171 0.557658 2.68131 1.65374C0.822268 3.49978 0 5.80733 0 8.3841C0 14.2107 4.18284 21.2871 9.68846 27.1906C15.1762 33.1326 21.808 37.6515 27.2063 37.6515Z" fill="#4B265E"/>
</svg>
