<svg width="25" height="24" viewBox="0 0 25 24" fill="none" xmlns="http://www.w3.org/2000/svg">
<path d="M20.6253 6.75H19.25V3.75C19.25 3.55109 19.171 3.36032 19.0303 3.21967C18.8897 3.07902 18.6989 3 18.5 3H6.5C6.30109 3 6.11032 3.07902 5.96967 3.21967C5.82902 3.36032 5.75 3.55109 5.75 3.75V6.75H4.37469C3.065 6.75 2 7.75969 2 9V16.5C2 16.6989 2.07902 16.8897 2.21967 17.0303C2.36032 17.171 2.55109 17.25 2.75 17.25H5.75V20.25C5.75 20.4489 5.82902 20.6397 5.96967 20.7803C6.11032 20.921 6.30109 21 6.5 21H18.5C18.6989 21 18.8897 20.921 19.0303 20.7803C19.171 20.6397 19.25 20.4489 19.25 20.25V17.25H22.25C22.4489 17.25 22.6397 17.171 22.7803 17.0303C22.921 16.8897 23 16.6989 23 16.5V9C23 7.75969 21.935 6.75 20.6253 6.75ZM7.25 4.5H17.75V6.75H7.25V4.5ZM17.75 19.5H7.25V15H17.75V19.5ZM21.5 15.75H19.25V14.25C19.25 14.0511 19.171 13.8603 19.0303 13.7197C18.8897 13.579 18.6989 13.5 18.5 13.5H6.5C6.30109 13.5 6.11032 13.579 5.96967 13.7197C5.82902 13.8603 5.75 14.0511 5.75 14.25V15.75H3.5V9C3.5 8.58656 3.89281 8.25 4.37469 8.25H20.6253C21.1072 8.25 21.5 8.58656 21.5 9V15.75ZM19.25 10.875C19.25 11.0975 19.184 11.315 19.0604 11.5C18.9368 11.685 18.7611 11.8292 18.5555 11.9144C18.35 11.9995 18.1238 12.0218 17.9055 11.9784C17.6873 11.935 17.4868 11.8278 17.3295 11.6705C17.1722 11.5132 17.065 11.3127 17.0216 11.0945C16.9782 10.8762 17.0005 10.65 17.0856 10.4445C17.1708 10.2389 17.315 10.0632 17.5 9.9396C17.685 9.81598 17.9025 9.75 18.125 9.75C18.4234 9.75 18.7095 9.86853 18.9205 10.0795C19.1315 10.2905 19.25 10.5766 19.25 10.875Z" fill="#5B6770"/>
</svg>
