<svg width="50" height="48" viewBox="0 0 50 48" fill="none" xmlns="http://www.w3.org/2000/svg">
<path d="M0 24.0001L24.5393 0.00011656L49.0787 24.0001L24.5393 48.0001L0 24.0001Z" fill="#5B6770"/>
<path d="M33.4651 15.974V19.6225C33.4651 20.0255 33.131 20.3522 32.719 20.3522C32.3069 20.3522 31.9729 20.0255 31.9729 19.6225V16.7037H28.9885C28.5764 16.7037 28.2424 16.377 28.2424 15.974C28.2424 15.571 28.5764 15.2443 28.9885 15.2443H32.719C33.131 15.2443 33.4651 15.571 33.4651 15.974ZM20.0353 31.2977H17.0509V28.3789C17.0509 27.9759 16.7169 27.6492 16.3048 27.6492C15.8928 27.6492 15.5587 27.9759 15.5587 28.3789V32.0274C15.5587 32.4304 15.8928 32.7571 16.3048 32.7571H20.0353C20.4474 32.7571 20.7814 32.4304 20.7814 32.0274C20.7814 31.6244 20.4474 31.2977 20.0353 31.2977ZM32.719 27.6492C32.3069 27.6492 31.9729 27.9759 31.9729 28.3789V31.2977H28.9885C28.5764 31.2977 28.2424 31.6244 28.2424 32.0274C28.2424 32.4304 28.5764 32.7571 28.9885 32.7571H32.719C33.131 32.7571 33.4651 32.4304 33.4651 32.0274V28.3789C33.4651 27.9759 33.131 27.6492 32.719 27.6492ZM16.3048 20.3522C16.7169 20.3522 17.0509 20.0255 17.0509 19.6225V16.7037H20.0353C20.4474 16.7037 20.7814 16.377 20.7814 15.974C20.7814 15.571 20.4474 15.2443 20.0353 15.2443H16.3048C15.8928 15.2443 15.5587 15.571 15.5587 15.974V19.6225C15.5587 20.0255 15.8928 20.3522 16.3048 20.3522ZM28.2424 29.1086H20.7814C19.9573 29.1086 19.2892 28.4552 19.2892 27.6492V20.3522C19.2892 19.5462 19.9573 18.8928 20.7814 18.8928H28.2424C29.0665 18.8928 29.7346 19.5462 29.7346 20.3522V27.6492C29.7346 28.4552 29.0665 29.1086 28.2424 29.1086ZM20.7814 27.6492H28.2424V20.3522H20.7814V27.6492Z" fill="white"/>
</svg>
